PathFileType	3	(X/Y/Z)	D:\Vicon Database\Healthy Subjects\S0040\Jan. 30, 2020\Force Plate Walk 9.trc
DataRate	CameraRate	NumFrames	NumMarkers	Units	OrigDataRate	OrigDataStartFrame	OrigNumFrames
100.0	100.0	6	53	mm	100.0	368	299	
Frame#	Time	right_foot_cluster2			right_foot_cluster3			sternum_cluster1			sternum_cluster2			sternum_cluster3			left_asis			right_asis			left_psis			right_psis			sacrum_cluster1			sacrum_cluster2			sacrum_cluster3			left_lat_femoral_epicondyle			left_anterior_thigh15			left_anterior_thigh25			left_anterior_thigh50			left_lateral_thigh25			left_lateral_thigh50			left_thigh_cluster1			left_thigh_cluster2			left_thigh_cluster3			left_fibular_head			left_tibial_tuberosity			left_anterior_shank30			left_lateral_malleolus			left_shank_cluster1			left_shank_cluster2			left_shank_cluster3			left_heel			left_metatarsal2			left_foot_cluster1			left_foot_cluster2			left_foot_cluster3			right_lat_femoral_epicondyle			right_anterior_thigh15			right_anterior_thigh25			right_anterior_thigh50			right_lateral_thigh25			right_lateral_thigh50			right_thigh_cluster1			right_thigh_cluster2			right_thigh_cluster3			right_fibular_head			right_tibial_tuberosity			right_lateral_distal_shank			right_anterior_shank30			right_lateral_malleolus			right_shank_cluster1			right_shank_cluster2			right_shank_cluster3			right_heel			right_metatarsal2			right_foot_cluster1			
		X1	Y1	Z1	X2	Y2	Z2	X3	Y3	Z3	X4	Y4	Z4	X5	Y5	Z5	X6	Y6	Z6	X7	Y7	Z7	X8	Y8	Z8	X9	Y9	Z9	X10	Y10	Z10	X11	Y11	Z11	X12	Y12	Z12	X13	Y13	Z13	X14	Y14	Z14	X15	Y15	Z15	X16	Y16	Z16	X17	Y17	Z17	X18	Y18	Z18	X19	Y19	Z19	X20	Y20	Z20	X21	Y21	Z21	X22	Y22	Z22	X23	Y23	Z23	X24	Y24	Z24	X25	Y25	Z25	X26	Y26	Z26	X27	Y27	Z27	X28	Y28	Z28	X29	Y29	Z29	X30	Y30	Z30	X31	Y31	Z31	X32	Y32	Z32	X33	Y33	Z33	X34	Y34	Z34	X35	Y35	Z35	X36	Y36	Z36	X37	Y37	Z37	X38	Y38	Z38	X39	Y39	Z39	X40	Y40	Z40	X41	Y41	Z41	X42	Y42	Z42	X43	Y43	Z43	X44	Y44	Z44	X45	Y45	Z45	X46	Y46	Z46	X47	Y47	Z47	X48	Y48	Z48	X49	Y49	Z49	X50	Y50	Z50	X51	Y51	Z51	X52	Y52	Z52	X53	Y53	Z53	
368	3.67	2207.334	102.99842	-223.46065	2207.6133	107.36345	-260.80731	2111.9553	1457.6842	-173.61969	2101.0737	1429.694	-164.49614	2099.782	1432.7909	-202.67598	2136.0422	1079.0182	-62.873497	2123.5852	1083.1768	-310.6153	2297.3684	1095.3408	-113.90948	2292.7764	1101.7423	-231.27477	2303.0989	1156.6433	-178.50406	2308.208	1131.4973	-191.32729	2313.448	1125.2838	-152.66342	2041.9917	572.841	-40.872131	1965.0216	675.92987	-78.484322	1986.8151	764.30432	-66.362373	2049.51	888.70374	-58.11821	2091.6167	713.82275	-17.207541	2142.9902	853.96796	9.1155901	2127.9192	808.73065	14.531411	2120.3445	780.01398	11.298179	2089.3369	801.15387	16.545956	2043.2157	498.36285	-34.272655	1981.8459	480.9144	-82.212799	2076.7034	242.59895	-100.11469	2158.77	143.37666	-78.053352	1995.3242	423.48547	-110.51168	2000.2366	396.44717	-101.61677	2009.085	399.72458	-139.26398	2232.9543	125.10049	-127.90089	2021.9147	79.996132	-96.07653	2068.6323	139.63205	-93.861526	2051.5955	116.93393	-82.208046	2040.2505	123.71119	-118.39381	2230.25	536.64142	-311.95087	2138.6921	616.48572	-254.04373	2112.2292	694.67145	-255.81235	2093.3755	824.48718	-271.94012	2207.7761	695.28821	-340.27371	2190.4849	840.84906	-370.99164	2204.5278	789.20123	-375.92001	2195.4192	762.15094	-370.33066	2234.6638	764.42328	-368.57816	2249.5603	469.98462	-313.29739	2198.0249	455.91891	-266.10486	2298.925	204.39145	-291.18198	2253.281	213.29509	-244.00719	2318.1885	102.64957	-273.68057	2219.0117	394.27286	-209.36652	2228.7971	367.75967	-201.86113	2204.3987	362.32639	-229.87425	2395.5159	68.889793	-238.11017	2174.7666	69.507957	-235.75381	2231.6948	116.60545	-231.85196
369	3.68	2206.8269	102.84381	-223.04765	2207.2837	107.24933	-260.56912	2097.4863	1456.649	-173.5797	2086.7004	1428.6407	-164.38933	2085.3887	1431.7122	-202.62274	2122.2642	1078.2358	-62.849022	2110.8005	1081.5342	-310.68555	2283.7913	1094.6805	-113.45953	2279.2659	1100.8129	-230.8123	2289.814	1155.8499	-178.23114	2294.531	1130.5267	-190.99181	2299.8127	1124.4872	-152.26552	2024.4191	573.47809	-41.030712	1948.9218	677.88733	-79.230232	1971.2091	765.99933	-67.252747	2034.7115	889.68109	-58.680969	2074.4004	714.84082	-16.623507	2127.2104	854.66235	9.9906902	2111.5857	809.45685	15.48829	2103.6362	780.91357	12.331186	2072.8164	802.14874	17.342138	2023.2494	498.09595	-34.332367	1962.2871	483.52359	-82.551384	2040.0298	239.88347	-99.159126	2115.3203	135.1158	-76.632019	1970.8469	425.80505	-110.22761	1974.1127	398.48523	-101.41707	1983.5037	401.09912	-139.0071	2188.2458	111.96517	-126.12008	1974.4734	81.346786	-94.728149	2025.0887	137.60872	-92.634041	2006.6716	116.34843	-80.945671	1995.8079	123.37547	-117.24647	2226.4358	536.49915	-311.3468	2134.1951	614.64154	-253.33139	2104.6917	692.35449	-255.21329	2082.949	822.06079	-271.52838	2200.5562	694.72443	-339.74854	2180.4824	839.8819	-370.35321	2195.2764	788.36127	-375.37582	2186.6545	761.47748	-369.86218	2225.8118	764.2428	-367.79816	2246.7014	470.26889	-312.58746	2195.2258	455.68857	-265.66934	2297.8274	204.89783	-290.49463	2252.083	213.44264	-243.48627	2317.6206	103.25542	-273.17139	2216.3914	394.05692	-208.77487	2226.3545	367.67752	-201.25983	2202.1509	362.20151	-229.26839	2395.1174	69.55941	-237.85809	2174.3923	69.230118	-235.53557	2231.0791	116.72374	-231.34396
370	3.69	2206.2004	102.75784	-222.72852	2206.7703	107.21202	-260.21756	2083.0654	1455.3093	-173.36644	2072.3098	1427.2932	-164.2485	2070.9822	1430.3583	-202.4955	2108.4387	1077.1936	-62.723995	2097.2297	1079.922	-310.76498	2270.1741	1093.6389	-112.9537	2265.9192	1099.5156	-230.35358	2274.939	1154.1793	-177.83073	2280.9119	1129.3826	-190.56125	2286.1255	1123.3961	-151.8109	2007.4348	573.79291	-40.814098	1933.4578	678.9939	-79.932571	1956.0537	766.89276	-68.202904	2020.0052	890.07434	-59.163704	2057.9893	715.14355	-16.276897	2111.7495	854.73474	10.809557	2095.5864	809.53687	16.296432	2087.0308	780.62866	12.844447	2056.5823	802.68811	17.620928	2003.6283	497.55743	-34.273514	1942.2651	485.95557	-82.828667	2003.3967	237.83743	-97.938454	2071.248	128.27577	-74.978348	1947.4885	428.02518	-110.33593	1948.5398	400.71225	-101.47724	1958.3158	402.52826	-139.0827	2142.7273	100.09129	-123.95125	1927.2222	83.964401	-93.658318	1981.5737	136.62968	-91.508942	1961.6027	116.75571	-79.875618	1951.5693	124.27138	-116.52662	2222.4663	536.58118	-310.58719	2128.6245	612.85797	-252.82059	2096.9255	690.07324	-254.64026	2072.394	819.65314	-271.10547	2192.7842	694.23145	-339.01614	2170.1575	838.95972	-370.02878	2185.7793	787.57434	-374.73694	2177.8052	760.37543	-369.03241	2216.8882	764.03687	-367.19452	2243.8958	470.76456	-311.69034	2192.4961	455.50125	-265.17838	2296.6487	205.55881	-289.83124	2250.6965	213.53804	-243.17487	2317.0105	103.93018	-272.65836	2213.6223	394.24695	-208.32954	2223.9119	367.67624	-200.63585	2199.6895	361.97415	-228.93834	2394.6318	70.560692	-237.55505	2173.916	68.888077	-235.32864	2230.6138	116.78603	-230.77087
371	3.7	2205.7305	102.43365	-222.36484	2206.1123	107.18983	-259.86215	2068.4641	1453.8657	-172.96954	2057.9319	1425.7074	-164.11447	2056.4612	1428.8282	-202.26028	2094.3875	1075.8525	-62.634602	2083.5618	1078.0635	-310.76196	2256.301	1092.2371	-112.51337	2252.0156	1097.9816	-229.81065	2261.9749	1153.1083	-177.48175	2267.3174	1127.9803	-190.05157	2272.4094	1122.0114	-151.31238	1991.0449	573.46045	-40.366554	1918.6271	679.24115	-80.814568	1941.3746	766.82904	-69.133255	2005.4822	889.64026	-59.548386	2042.3186	714.78906	-16.142239	2096.626	854.20166	11.507661	2080.0413	809.16473	16.961338	2071.6448	780.73053	13.981167	2041.0428	802.33997	18.291748	1984.2056	496.75403	-34.110474	1923.0059	488.01767	-83.204895	1966.9965	236.77669	-96.801132	2027.0488	122.81046	-72.867432	1924.5925	430.2265	-110.71356	1923.3938	402.89359	-101.69838	1934.015	404.01996	-139.13956	2096.9158	89.872078	-121.30969	1880.1545	87.864189	-93.028511	1938.1337	136.87849	-90.578529	1915.9402	119.16506	-78.755821	1907.3732	126.53418	-115.65209	2218.6091	536.75024	-309.75787	2122.9885	611.01996	-252.338	2088.9895	687.70807	-254.13916	2061.8875	816.97784	-270.79434	2185.563	693.71149	-338.34131	2159.9978	837.97089	-369.41638	2176.1243	786.74786	-373.98331	2168.6812	759.57269	-368.14035	2207.7295	763.95282	-366.52762	2241.2671	471.34442	-310.90115	2189.6797	455.50253	-264.79596	2295.7637	206.489	-288.94699	2249.2163	213.83417	-242.85078	2316.1172	104.92408	-272.04874	2211.4189	394.48108	-207.67369	2220.9502	367.75226	-200.36792	2197.4724	361.79388	-228.20993	2394.1594	71.852707	-237.18121	2173.554	68.856133	-235.29445	2229.6978	116.83098	-230.53928
372	3.71	2204.8364	102.39087	-222.25275	2205.5596	107.12457	-259.58722	2054.2463	1452.0104	-173.01401	2043.5195	1423.9171	-163.89392	2041.9767	1427.0417	-202.04626	2080.3262	1074.171	-62.440948	2069.8628	1076.0746	-310.61002	2242.343	1090.5725	-111.96173	2238.095	1096.1925	-229.22931	2247.9248	1151.1844	-176.89609	2253.457	1126.2463	-189.50461	2258.5032	1120.239	-150.77583	1975.3667	572.27576	-40.210255	1904.5729	678.62708	-81.799446	1927.2343	765.86023	-70.026382	1991.095	888.36444	-59.791058	2027.2589	713.70227	-15.9575	2081.7197	853.0863	12.095968	2065.1787	807.97473	17.376884	2056.4211	779.146	13.701434	2026.067	801.40802	18.871002	1964.562	495.93164	-33.688633	1904.3553	489.65405	-83.546333	1931.1335	236.69426	-95.733353	1982.7365	118.60655	-70.876602	1902.597	432.60526	-111.14632	1899.5922	405.06561	-101.98014	1910.7701	405.51541	-139.20544	2051.168	81.252808	-118.10674	1834.3544	92.884529	-92.80529	1895.1519	138.181	-89.858955	1871.7941	121.94711	-78.151733	1863.6704	130.08006	-114.84384	2214.7476	537.22858	-309.16812	2117.2283	609.2608	-251.95778	2080.9282	685.37775	-253.55858	2050.9614	814.27942	-270.58411	2177.9878	693.16534	-337.62131	2149.2432	836.94708	-368.80597	2166.4988	786.0296	-373.54044	2159.6194	758.67377	-367.70407	2198.4861	763.3631	-365.79456	2238.4238	472.13004	-309.97269	2186.8459	455.51917	-264.31366	2294.8877	207.57471	-288.41504	2247.8157	214.20547	-242.8093	2315.5737	105.87613	-271.41205	2207.9116	394.63153	-207.58806	2218.1907	368.23294	-199.72371	2194.9966	362.00015	-227.84453	2393.7637	73.143463	-236.65988	2172.9446	68.582771	-235.29073	2229.1946	116.82243	-229.7831
373	3.72	2204.2168	102.15213	-221.79933	2204.8582	107.11732	-259.30756	2039.8984	1449.7454	-172.86966	2029.057	1421.9381	-163.59497	2027.5291	1425.03	-201.80278	2066.0308	1072.3589	-62.28566	2056.1172	1073.8977	-310.46701	2228.3518	1088.6558	-111.31301	2224.2356	1094.2034	-228.711	2233.8381	1149.2911	-176.27214	2239.5095	1124.313	-188.88564	2244.4275	1118.2466	-150.18903	1959.7723	570.72394	-39.535149	1891.1387	677.17468	-82.849419	1913.6107	764.04175	-70.799019	1976.746	886.30768	-59.824703	2013.1869	711.84167	-15.77008	2067.4363	851.30499	12.464388	2050.9836	806.10693	17.603279	2042.387	777.72412	14.094244	2011.9689	799.45563	19.745014	1945.4702	494.41382	-33.324249	1886.1147	491.08109	-83.922157	1896.2214	237.25511	-94.749931	1938.8865	115.99574	-68.649002	1881.166	434.96597	-111.45751	1876.1354	407.56009	-102.33955	1888.3085	407.00845	-139.30157	2005.9056	74.130241	-114.57898	1789.798	99.369553	-93.137344	1853.1854	140.78293	-89.167519	1828.7284	125.9242	-77.924049	1821.8621	134.43739	-114.63512	2210.6077	537.75507	-308.21078	2111.3296	607.56458	-251.41791	2072.6941	683.07745	-252.9436	2039.8069	811.4906	-270.34668	2170.1191	692.7627	-336.80719	2138.8911	836.02161	-368.4776	2156.8687	785.12402	-372.84818	2150.5164	757.62457	-367.01804	2189.26	763.49347	-364.86963	2235.2322	472.99701	-309.15668	2183.4607	455.58981	-263.8605	2293.6182	208.7411	-287.63422	2246.3005	215.05511	-242.10475	2314.8286	107.02587	-270.80984	2204.2808	394.20743	-206.81363	2215.2466	368.54233	-199.12878	2192.1492	362.16104	-227.54373	2393.1445	74.721596	-236.11618	2172.6855	68.032394	-234.94504	2228.2141	116.99255	-229.62122
